<svg width="48" height="48" viewBox="0 0 48 48" fill="none" xmlns="http://www.w3.org/2000/svg">
<g clip-path="url(#clip0_8288_56)">
<path d="M30.4936 21.9705H25.6235C24.0993 21.9705 22.8637 23.2152 22.8637 24.7506C22.8637 26.286 24.0993 27.5307 25.6235 27.5307H27.7339C29.258 27.5307 30.4936 28.7754 30.4936 30.3109C30.4936 31.8463 29.258 33.091 27.7339 33.091H17.5066M20.104 28.4821C20.104 27.037 18.9411 25.8655 17.5066 25.8655C16.0721 25.8655 14.9092 27.037 14.9092 28.4821V28.5804C14.9092 29.1542 15.0896 29.7133 15.4246 30.1773L17.5015 33.054C17.504 33.0575 17.5092 33.0575 17.5117 33.054L19.5885 30.1773C19.9235 29.7133 20.104 29.1542 20.104 28.5804V28.4821ZM18.0087 27.405L18.0243 27.4124C18.3387 27.5622 18.5678 27.8485 18.6466 28.1897C18.7262 28.5347 18.6406 28.9005 18.419 29.1755C18.1998 29.4474 17.8681 29.6084 17.5204 29.6084H17.4928C17.145 29.6084 16.8134 29.4474 16.5942 29.1755C16.3725 28.9005 16.287 28.5347 16.3666 28.1897C16.4453 27.8485 16.6745 27.5622 16.9889 27.4124L17.0045 27.405C17.3223 27.2535 17.6908 27.2535 18.0087 27.405ZM33.091 17.5442C33.091 16.0991 31.9281 14.9092 30.4936 14.9092C29.0591 14.9092 27.8962 16.0991 27.8962 17.5442C27.8962 18.1123 28.078 18.6714 28.4147 19.1271L30.4885 21.9343C30.491 21.9378 30.4962 21.9378 30.4987 21.9343L32.5725 19.1271C32.9092 18.6714 33.091 18.1123 33.091 17.5442ZM30.9887 16.4104L31.0239 16.4268C31.3302 16.5694 31.5545 16.8457 31.6326 17.1764C31.7126 17.5155 31.6296 17.8728 31.4085 18.1409L31.3974 18.1544C31.1818 18.4158 30.8619 18.567 30.5246 18.567H30.4626C30.1253 18.567 29.8054 18.4158 29.5898 18.1544L29.5787 18.1409C29.3576 17.8728 29.2746 17.5155 29.3546 17.1764C29.4327 16.8457 29.657 16.5694 29.9633 16.4268L29.9985 16.4104C30.3126 16.2642 30.6746 16.2642 30.9887 16.4104Z" stroke="#0266C1" stroke-linecap="round"/>
</g>
<rect x="0.5" y="0.5" width="47" height="47" stroke="#0266C1"/>
<defs>
<clipPath id="clip0_8288_56">
<rect width="20" height="20" fill="white" transform="translate(14 14)"/>
</clipPath>
</defs>
</svg>
