<svg width="48" height="48" viewBox="0 0 48 48" fill="none" xmlns="http://www.w3.org/2000/svg">
<path d="M21.9547 23.9201L24.0002 25.9603L27.5798 22.3899M24.0001 14.9092C21.8899 15.9883 19.5389 16.562 17.1357 16.562C16.8112 16.562 16.4877 16.5516 16.1656 16.5308C15.7498 18.4276 15.7038 20.4013 16.047 22.3423C16.6612 25.817 18.4833 28.9648 21.1931 31.2327C22.062 31.9599 23.0043 32.5817 24.0002 33.091C24.9961 32.5817 25.9384 31.9599 26.8072 31.2327C29.5171 28.9648 31.3391 25.817 31.9534 22.3423C32.2965 20.4013 32.2505 18.4276 31.8347 16.5308C31.5126 16.5516 31.1891 16.562 30.8646 16.562C28.4614 16.562 26.1104 15.9883 24.0001 14.9092Z" stroke="#0266C1"/>
<rect x="0.5" y="0.5" width="47" height="47" stroke="#0266C1"/>
</svg>
