<svg width="48" height="48" viewBox="0 0 48 48" fill="none" xmlns="http://www.w3.org/2000/svg"><path d="M23.7185 28.7678C23.1024 26.1652 21.2906 23.9747 18.7959 22.8165C17.5674 22.246 16.239 21.9565 14.9092 21.948C14.987 23.7922 15.6676 25.5874 16.8867 27.0612C18.6004 29.1331 21.1929 30.3461 23.9392 30.3638C23.9168 29.8308 23.8437 29.2966 23.7185 28.7678ZM23.7185 28.7678C23.2127 26.6313 21.9011 24.7725 20.0674 23.5345C20.0984 23.3499 20.1356 23.1657 20.179 22.9821C20.7003 20.7801 22.0775 18.8731 24.0001 17.6367C25.9226 18.8731 27.2998 20.7801 27.8211 22.9821C27.8645 23.1656 27.9017 23.3499 27.9327 23.5345C26.099 24.7725 24.7875 26.6312 24.2817 28.7678M23.7185 28.7678C23.8437 29.2965 23.9167 29.8305 23.9391 30.3633C23.9772 30.3638 24.0152 30.364 24.0533 30.364C24.8232 30.364 25.5814 30.27 26.312 30.0895C26.3161 30.084 26.3203 30.0785 26.3244 30.073C25.5928 30.2594 24.833 30.3588 24.061 30.3638M24.2817 28.7678C24.8978 26.1652 26.7096 23.9747 29.2042 22.8165C30.4328 22.246 31.7612 21.9565 33.091 21.948C33.0132 23.7922 32.3326 25.5874 31.1135 27.0612C29.3998 29.1331 26.8073 30.3461 24.061 30.3638M24.2817 28.7678C24.1565 29.2966 24.0834 29.8308 24.061 30.3638" stroke="#0266C1" stroke-linecap="round" stroke-linejoin="round"/><rect x="0.5" y="0.5" width="47" height="47" stroke="#0266C1"/></svg>