<svg width="48" height="48" viewBox="0 0 48 48" fill="none" xmlns="http://www.w3.org/2000/svg">
<path d="M32.8322 26.9487C33.3971 25.0444 32.9322 22.883 32.4383 21.3853C32.4351 21.3273 32.4185 21.2712 32.3899 21.2219C32.222 20.7354 32.0671 20.3358 31.9347 20.0474C32.1784 19.943 32.3391 19.6903 32.3415 19.408V16.5134C32.3415 16.1295 32.0525 15.8184 31.6959 15.8184H23.7644C23.5862 15.818 23.4414 15.9733 23.4411 16.1652C23.4411 16.1724 23.4413 16.1796 23.4416 16.1867C23.5514 18.2717 23.4094 19.686 22.9994 20.6833C22.9912 20.6932 22.9837 20.7037 22.9768 20.7146C22.9756 20.7319 22.9756 20.7494 22.9768 20.7667C22.8203 21.1298 22.6087 21.4621 22.3505 21.7501L22.3215 21.771C22.3215 21.771 22.3215 21.771 22.3215 21.7953C21.943 22.1839 21.5066 22.501 21.0302 22.7336C20.2004 23.1299 19.3487 23.4711 18.4801 23.7552L18.3154 23.8143C15.2972 24.8915 14.9033 26.8444 14.9098 27.8244C14.909 27.8383 14.909 27.8522 14.9098 27.8661V30.3472C14.9103 30.468 14.9689 30.5798 15.0647 30.6426C15.8045 31.1271 16.6029 31.4989 17.4374 31.7476C17.609 31.7996 17.7873 31.6919 17.8355 31.5072C17.8446 31.4724 17.8486 31.4362 17.8473 31.4001V31.3202H18.3219V31.6677C18.3198 31.8398 18.4352 31.9877 18.593 32.0152C18.8739 32.0638 19.1547 32.1021 19.4291 32.1264C19.519 32.1345 19.608 32.1018 19.6745 32.036C19.7409 31.9697 19.7784 31.8764 19.7777 31.7789V31.3411H20.2523V31.8345C20.2523 32.0264 20.3968 32.182 20.5751 32.182C20.8462 32.182 21.1174 32.182 21.4079 32.1403C21.5761 32.1258 21.7054 31.9744 21.7049 31.7928V31.3411H22.1795V31.6468C22.1772 31.8388 22.3198 31.9963 22.4981 31.9988C22.5167 31.9991 22.5354 31.9976 22.5539 31.9943C23.1465 31.8967 23.7305 31.7468 24.3003 31.5461L24.352 31.5218C26.6116 30.1318 28.0449 31.275 28.103 31.3237C28.1593 31.3708 28.2286 31.3964 28.2999 31.3967H28.7002C28.8785 31.3967 29.023 31.2411 29.023 31.0492V30.4619H29.4846V31.0422C29.4846 31.2341 29.6292 31.3897 29.8074 31.3897H30.8469C31.0252 31.3897 31.1697 31.2341 31.1697 31.0422V30.4619H31.6474V31.0422C31.6474 31.2341 31.792 31.3897 31.9703 31.3897H32.7676C32.9459 31.3897 33.0904 31.2341 33.0904 31.0422V27.2962C33.0936 27.1284 32.9849 26.9822 32.8322 26.9487ZM25.1719 16.5203H31.6797V19.3976H25.1719V16.5203ZM21.1142 23.4494L21.1174 23.4702C21.382 23.7015 21.6262 23.9586 21.847 24.2382C21.7884 24.343 21.7582 24.4634 21.7598 24.5857C21.7576 24.9523 22.0318 25.2513 22.3723 25.2537C22.7129 25.2561 22.9907 24.9609 22.9929 24.5944C22.995 24.249 22.7507 23.9597 22.4312 23.9289C22.2271 23.6293 21.9944 23.3532 21.7372 23.1054C22.0257 22.9286 22.2971 22.7214 22.5475 22.4868C22.8605 22.803 23.1518 23.1433 23.419 23.505C23.3067 23.8511 23.4763 24.2296 23.7977 24.3505C24.1192 24.4714 24.4708 24.2889 24.5832 23.9428C24.6955 23.5968 24.5259 23.2183 24.2045 23.0973C24.1378 23.0722 24.0676 23.0597 23.9969 23.0602H23.9194C23.6362 22.6765 23.3277 22.3153 22.9962 21.9795C23.15 21.7755 23.2862 21.5569 23.4029 21.3262C23.9026 21.6062 24.3857 21.9196 24.8491 22.2644C24.8459 22.6348 25.1223 22.9378 25.4663 22.9413C25.8104 22.9447 26.0919 22.6472 26.0951 22.2768C26.0983 21.9064 25.8219 21.6034 25.4778 21.6C25.3796 21.599 25.2825 21.623 25.1945 21.6702C24.7067 21.3147 24.1989 20.9921 23.6741 20.7042C24.0259 19.6964 24.1776 18.3586 24.1066 16.5342H24.5295V19.4115C24.5295 19.7953 24.8185 20.1065 25.1751 20.1065H31.2246C31.3085 20.2906 31.4505 20.6103 31.6055 21.0273H31.4731C29.5121 21.0426 27.9338 22.7663 27.948 24.8773C27.956 26.0769 28.4867 27.2028 29.3813 27.9182C26.7698 28.6584 22.8412 29.5375 19.5356 29.3082C20.1458 26.6846 19.4162 25.0687 18.9417 24.3598C19.6806 24.0989 20.4059 23.795 21.1142 23.4494ZM18.2928 24.5579C18.6415 24.9992 19.5518 26.483 18.8836 29.2109C17.7204 29.1125 16.5907 28.745 15.5715 28.1337C15.56 28.0543 15.5524 27.9742 15.5489 27.8939V27.8696C15.5231 27.1294 15.7814 25.5274 18.2928 24.5579ZM32.2931 30.6947V30.1144C32.2931 29.9225 32.1485 29.7669 31.9703 29.7669H30.8501C30.6718 29.7669 30.5273 29.9225 30.5273 30.1144V30.6947H30.1302V30.1144C30.1302 29.9225 29.9857 29.7669 29.8074 29.7669H28.6937C28.5155 29.7669 28.3709 29.9225 28.3709 30.1144V30.6808C27.9319 30.3854 26.3276 29.5271 24.0517 30.8963C23.6469 31.0401 23.2339 31.1562 22.8154 31.2438V31.004C22.8154 30.8121 22.6708 30.6565 22.4926 30.6565H21.3789C21.2006 30.6565 21.0561 30.8121 21.0561 31.004V31.4801H20.8914V30.9936C20.8914 30.8017 20.7469 30.6461 20.5686 30.6461H19.4485C19.2702 30.6461 19.1257 30.8017 19.1257 30.9936V31.4071L18.961 31.3828V30.9936C18.961 30.8017 18.8165 30.6461 18.6382 30.6461H17.5181C17.3539 30.6448 17.215 30.7764 17.1953 30.9519C16.6223 30.7488 16.0706 30.4821 15.5489 30.1561V28.912C16.9564 29.7148 18.777 30.0171 20.7139 30.0171C25.8595 30.0171 31.7475 27.8974 32.4416 27.6437L32.4448 30.6947H32.2931ZM32.1349 27.0286C31.8605 27.1259 31.1858 27.3761 30.2529 27.6437C28.8086 26.8912 28.2044 25.0209 28.9034 23.4661C29.3816 22.4026 30.3757 21.7199 31.4731 21.7015C31.6004 21.6996 31.7276 21.7065 31.854 21.7223L31.8573 21.7328C32.3318 23.2061 32.7579 25.3085 32.1349 27.0286Z" fill="#0266C1"/>
<path d="M26.415 16.9408C25.8962 16.9408 25.4756 17.3936 25.4756 17.952C25.4774 18.5097 25.8969 18.9613 26.415 18.9632C26.9338 18.9632 27.3543 18.5105 27.3543 17.952C27.3543 17.3936 26.9338 16.9408 26.415 16.9408ZM26.415 18.2682C26.2527 18.2682 26.1212 18.1267 26.1212 17.952C26.1212 17.7774 26.2527 17.6358 26.415 17.6358C26.5772 17.6358 26.7087 17.7774 26.7087 17.952C26.7087 18.1267 26.5772 18.2682 26.415 18.2682Z" fill="#0266C1"/>
<rect x="0.5" y="0.5" width="47" height="47" stroke="#0266C1"/>
</svg>
